<?xml version="1.0" standalone="no"?>
<!DOCTYPE svg PUBLIC "-//W3C//DTD SVG 20010904//EN"
 "http://www.w3.org/TR/2001/REC-SVG-20010904/DTD/svg10.dtd">
<svg version="1.0" xmlns="http://www.w3.org/2000/svg"
 width="1280.000000pt" height="1280.000000pt" viewBox="0 0 1280.000000 1280.000000"
 preserveAspectRatio="xMidYMid meet">

<g transform="translate(0.000000,1280.000000) scale(0.100000,-0.100000)"
fill="#202637" stroke="none">
<path d="M6489 11763 c-4 -31 3 -2065 7 -2089 l6 -32 81 -4 c44 -3 533 -3
1086 -1 673 3 1011 1 1021 -6 13 -9 15 -357 18 -3011 1 -2075 -1 -3007 -8
-3021 -11 -19 -39 -19 -2335 -19 -1279 0 -2332 3 -2340 6 -13 5 -15 136 -15
1088 0 594 4 1087 9 1094 6 10 351 13 1838 12 1498 0 1832 2 1841 13 8 9 11
422 9 1438 l-2 1424 -1364 3 c-1085 2 -1366 0 -1373 -10 -4 -7 -7 -476 -8
-1042 0 -751 -3 -1032 -11 -1042 -10 -12 -329 -14 -1980 -14 -1529 0 -1969 -3
-1975 -12 -10 -16 -7 -356 6 -553 30 -470 111 -938 222 -1285 119 -373 197
-569 333 -835 230 -453 481 -806 866 -1221 82 -88 163 -173 181 -189 18 -16
83 -75 143 -131 285 -265 587 -483 1005 -727 119 -69 495 -257 515 -257 2 0
28 -11 57 -24 230 -106 628 -235 933 -302 157 -35 291 -57 580 -96 141 -19
207 -21 550 -21 337 0 415 3 575 22 102 11 223 26 270 31 47 6 105 14 130 20
230 49 347 75 400 90 285 78 567 178 845 300 88 38 346 167 415 207 47 27 94
54 105 61 375 208 765 497 1104 817 66 63 235 243 301 321 410 485 641 841
879 1357 23 49 41 91 41 95 1 4 9 25 20 47 11 22 19 46 20 53 0 7 4 20 10 30
15 26 80 198 80 211 0 6 4 19 10 29 14 24 89 256 105 322 8 30 20 82 28 115
60 241 97 437 117 625 5 52 16 140 22 195 18 137 18 874 0 1010 -7 55 -17 136
-22 180 -22 171 -46 313 -85 495 -31 146 -34 159 -49 207 -8 26 -22 75 -31
108 -24 82 -123 383 -139 420 -7 17 -21 50 -31 75 -10 25 -27 65 -37 90 -11
25 -23 54 -27 65 -49 116 -268 543 -321 625 -6 8 -15 25 -20 38 -6 13 -21 38
-35 56 -14 18 -25 36 -25 41 0 4 -13 24 -28 44 -16 20 -32 43 -35 51 -6 13
-46 71 -97 140 -195 261 -268 356 -316 410 -33 36 -77 87 -99 115 -105 132
-508 512 -665 629 -75 56 -156 117 -168 126 -7 6 -54 39 -105 74 -50 35 -122
84 -160 109 -37 26 -70 47 -73 47 -3 0 -20 11 -37 24 -18 14 -43 30 -57 36
-14 6 -59 31 -100 55 -67 40 -353 185 -364 185 -4 0 -85 36 -181 80 -49 23
-185 74 -285 106 -41 14 -82 29 -91 34 -9 5 -34 12 -55 16 -22 3 -43 10 -49
14 -9 7 -33 14 -160 43 -27 7 -54 15 -60 19 -5 3 -32 9 -60 13 -27 4 -57 11
-66 16 -9 4 -45 13 -80 20 -35 6 -98 17 -139 25 -41 7 -128 20 -194 29 -65 8
-125 17 -135 19 -63 20 -690 46 -692 29z"/>
<path d="M3436 10990 c-22 -17 -43 -30 -47 -30 -11 0 -100 -62 -166 -116 -33
-27 -98 -78 -144 -114 -297 -230 -645 -587 -898 -925 -83 -110 -277 -399 -343
-510 -102 -172 -358 -681 -358 -710 0 -3 -14 -33 -30 -67 -17 -34 -30 -66 -30
-72 0 -6 -6 -23 -14 -38 -29 -56 -152 -437 -185 -578 -25 -103 -26 -116 -5
-124 9 -4 518 -6 1130 -5 891 1 1117 4 1131 15 17 12 18 100 21 1658 3 1373 2
1646 -10 1646 -7 0 -31 -14 -52 -30z"/>
</g>
</svg>
